<svg xmlns="http://www.w3.org/2000/svg" xmlns:xlink="http://www.w3.org/1999/xlink" viewBox="0,0,256,256" width="48px" height="48px" fill-rule="nonzero"><g fill="none" fill-rule="nonzero" stroke="none" stroke-width="1" stroke-linecap="butt" stroke-linejoin="miter" stroke-miterlimit="10" stroke-dasharray="" stroke-dashoffset="0" font-family="none" font-weight="none" font-size="none" text-anchor="none" style="mix-blend-mode: normal"><g transform="scale(5.33333,5.33333)"><path d="M40,7h-32c-1.654,0 -3,1.346 -3,3v2c0,1.654 1.346,3 3,3h1l31,-1c1.654,0 2,-0.346 2,-2l1,-2c0,-1.654 -1.346,-3 -3,-3z" fill="#76b947"></path><path d="M40,15h-31c-0.553,0 -1,-0.447 -1,-1c0,-0.553 0.447,-1 1,-1h31c0.552,0 1,-0.448 1,-1v-2c0,-0.553 0.447,-1 1,-1c0.553,0 1,0.447 1,1v2c0,1.654 -1.346,3 -3,3z" fill="#5e9538"></path><path d="M40,20h-32c-1.654,0 -3,1.346 -3,3v2c0,1.654 1.346,3 3,3h1l31,-1c1.654,0 2,-0.346 2,-2l1,-2c0,-1.654 -1.346,-3 -3,-3z" fill="#76b947"></path><path d="M40,28h-31c-0.553,0 -1,-0.447 -1,-1c0,-0.553 0.447,-1 1,-1h31c0.552,0 1,-0.448 1,-1v-2c0,-0.553 0.447,-1 1,-1c0.553,0 1,0.447 1,1v2c0,1.654 -1.346,3 -3,3z" fill="#5e9538"></path><path d="M40,33h-32c-1.654,0 -3,1.346 -3,3v2c0,1.654 1.346,3 3,3h1l31,-1c1.654,0 2,-0.346 2,-2l1,-2c0,-1.654 -1.346,-3 -3,-3z" fill="#76b947"></path><path d="M40,41h-31c-0.553,0 -1,-0.447 -1,-1c0,-0.553 0.447,-1 1,-1h31c0.552,0 1,-0.448 1,-1v-2c0,-0.553 0.447,-1 1,-1c0.553,0 1,0.447 1,1v2c0,1.654 -1.346,3 -3,3z" fill="#5e9538"></path></g></g></svg>